<?xml version="1.0" encoding="UTF-8" standalone="no"?>
<!-- Created with Inkscape (http://www.inkscape.org/) -->

<svg
   xmlns:dc="http://purl.org/dc/elements/1.1/"
   xmlns:cc="http://creativecommons.org/ns#"
   xmlns:rdf="http://www.w3.org/1999/02/22-rdf-syntax-ns#"
   xmlns:svg="http://www.w3.org/2000/svg"
   xmlns="http://www.w3.org/2000/svg"
   xmlns:sodipodi="http://sodipodi.sourceforge.net/DTD/sodipodi-0.dtd"
   xmlns:inkscape="http://www.inkscape.org/namespaces/inkscape"
   width="9.0402193in"
   height="3.1447012in"
   viewBox="0 0 229.62157 79.875412"
   version="1.1"
   id="svg1001"
   inkscape:version="0.92.2 5c3e80d, 2017-08-06"
   sodipodi:docname="SHSM_truck_12T.svg">
  <defs
     id="defs995" />
  <sodipodi:namedview
     id="base"
     pagecolor="#ffffff"
     bordercolor="#666666"
     borderopacity="1.0"
     inkscape:pageopacity="0.0"
     inkscape:pageshadow="2"
     inkscape:zoom="0.35"
     inkscape:cx="-142.91988"
     inkscape:cy="149.68583"
     inkscape:document-units="mm"
     inkscape:current-layer="layer1"
     showgrid="false"
     fit-margin-top="0"
     fit-margin-left="0"
     fit-margin-right="0"
     fit-margin-bottom="0"
     units="in"
     inkscape:window-width="1440"
     inkscape:window-height="855"
     inkscape:window-x="0"
     inkscape:window-y="1"
     inkscape:window-maximized="1" />
  <metadata
     id="metadata998">
    <rdf:RDF>
      <cc:Work
         rdf:about="">
        <dc:format>image/svg+xml</dc:format>
        <dc:type
           rdf:resource="http://purl.org/dc/dcmitype/StillImage" />
        <dc:title></dc:title>
      </cc:Work>
    </rdf:RDF>
  </metadata>
  <g
     inkscape:label="Layer 1"
     inkscape:groupmode="layer"
     id="layer1"
     transform="translate(9.8107819,-108.5623)">
    <g
       transform="matrix(0,-0.35277777,-0.35277777,0,244.4829,254.9003)"
       id="g993">
      <path
         inkscape:connector-curvature="0"
         id="path12"
         style="fill:#1f1917;fill-opacity:1;fill-rule:evenodd;stroke:#1f1917;stroke-width:0.21600001;stroke-linecap:butt;stroke-linejoin:miter;stroke-miterlimit:10;stroke-dasharray:none;stroke-opacity:1"
         d="m 236.5835,439.3071 v -0.3101 -48.8783 l 22.1134,20.4398 v 140.2202 l 124.9911,0.0528 v 66.4968 c 0,17.3806 0,28.2648 -24.0338,35.4676 l -46.9335,12.0005 v 27.7291 c 0,13.6295 0,13.6295 -13.1596,13.6295 -20.9925,0 -41.9851,0 -62.9776,0 v 14.5695 H 222.014 v -52.1957 c -19.8184,-2.653 -33.3689,-15.3224 -33.3689,-35.2967 0,-19.8182 13.8626,-33.2768 33.3689,-37.7306 v -20.9418 h 14.5695 v -56.6036 c -1.8726,0.3121 -5.9613,0.468 -7.9897,0.468 -22.0031,0 -39.9487,-17.9456 -39.9487,-39.9487 0,-22.0028 17.9456,-39.9483 39.9487,-39.9483 2.4964,0 5.6488,0.312 7.9897,0.78 z" />
      <path
         inkscape:connector-curvature="0"
         id="path14"
         style="fill:#1f1917;fill-opacity:1;fill-rule:evenodd;stroke:#1f1917;stroke-width:0.21600001;stroke-linecap:butt;stroke-linejoin:miter;stroke-miterlimit:10;stroke-dasharray:none;stroke-opacity:1"
         d="m 188.5059,171.9782 c 0,-21.9926 17.9371,-39.9296 39.9297,-39.9296 2.7921,0 5.5179,0.2905 8.151,0.8404 V 70.0447 H 414.7084 V 534.9529 H 270.5613 V 404.4263 l -33.9747,-30.9416 v -162.417 c -2.6331,0.5497 -5.3589,0.8405 -8.151,0.8405 -21.9926,0 -39.9297,-17.9374 -39.9297,-39.93 z" />
    </g>
  </g>
</svg>
